<?xml version="1.0" encoding="UTF-8" standalone="no"?>
<svg
   xmlns:dc="http://purl.org/dc/elements/1.1/"
   xmlns:cc="http://creativecommons.org/ns#"
   xmlns:rdf="http://www.w3.org/1999/02/22-rdf-syntax-ns#"
   xmlns:svg="http://www.w3.org/2000/svg"
   xmlns="http://www.w3.org/2000/svg"
   viewBox="310 0 50 130.76587"
   height="280.76587"
   width="454.93066"
   xml:space="preserve"
   version="1.1"
   id="svg3355">
  <g
     transform="matrix(1.3333333,0,0,-1.3333333,-180.53426,935.79824)"
     id="g3363">
    <g
       transform="translate(420.064,651.1567)"
       id="g3365">
      <path
         id="path3367"
         style="fill:#6441a5;fill-opacity:1;fill-rule:evenodd;stroke:none"
         d="m 0,0 -13.652,-13.651 -21.445,0 -11.699,-11.697 0,11.697 -17.548,0 0,56.544 L 0,42.893 0,0 Z m -72.146,50.692 -3.899,-15.599 0,-70.19 17.55,0 0,-9.751 9.746,0 9.752,9.751 15.596,0 31.196,31.192 0,54.597 -79.941,0 z" />
    </g>
    <path
       id="path3369"
       style="fill:#6441a5;fill-opacity:1;fill-rule:evenodd;stroke:none"
       d="m 377.167,655.053 7.799,0 0,23.401 -7.799,0 0,-23.401 z m 21.446,0 7.799,0 0,23.401 -7.799,0 0,-23.401 z" /><g
       transform="translate(468.8057,565.3643)"
       id="g3371">
    </g>
  </g>
</svg>